<?xml version="1.0" standalone="no"?>
<!DOCTYPE svg PUBLIC "-//W3C//DTD SVG 20010904//EN"
 "http://www.w3.org/TR/2001/REC-SVG-20010904/DTD/svg10.dtd">
<svg version="1.0" xmlns="http://www.w3.org/2000/svg"
 width="500.000000pt" height="500.000000pt" viewBox="0 0 500.000000 500.000000"
 preserveAspectRatio="xMidYMid meet">
<metadata>
Created by potrace 1.14, written by Peter Selinger 2001-2017
</metadata>
<g transform="translate(0.000000,500.000000) scale(0.100000,-0.100000)"
fill="#000000" stroke="none">
<path d="M4128 4775 c-1 -2 -66 -6 -143 -9 -77 -3 -185 -8 -240 -11 -55 -3
-152 -7 -215 -10 -104 -4 -162 -7 -425 -20 -44 -2 -138 -7 -210 -10 -71 -3
-166 -8 -210 -10 -44 -2 -136 -7 -205 -10 -69 -3 -174 -8 -234 -10 -120 -6
-163 -20 -188 -63 -8 -15 -48 -90 -88 -167 -40 -77 -103 -198 -140 -270 -37
-71 -102 -197 -145 -280 -43 -82 -94 -181 -114 -220 -20 -38 -40 -73 -44 -76
-5 -3 -8 -9 -8 -13 1 -6 -46 -100 -109 -219 -14 -27 -47 -92 -74 -145 -27 -53
-54 -100 -60 -104 -6 -4 -7 -8 -3 -8 5 0 0 -15 -11 -32 -11 -18 -61 -114 -112
-213 -51 -99 -116 -225 -145 -280 -90 -173 -109 -210 -112 -225 -6 -27 7 -77
25 -97 41 -47 36 -46 615 -47 301 -1 547 -4 547 -8 0 -9 -56 -122 -296 -598
-93 -184 -171 -337 -174 -340 -3 -3 -120 -233 -259 -511 l-255 -507 12 -40
c24 -79 111 -116 174 -74 15 10 152 139 304 287 336 327 415 405 719 700 270
263 600 583 783 763 69 67 126 122 126 122 1 0 89 86 196 190 107 105 198 190
202 190 5 0 8 7 8 15 0 8 4 15 9 15 11 0 451 432 452 445 7 64 5 79 -15 108
-15 22 -37 37 -71 49 -28 9 -52 13 -55 10 -7 -10 -160 -9 -160 1 0 5 -5 5 -11
2 -16 -11 -69 -12 -69 -2 0 4 -5 5 -11 2 -16 -11 -69 -12 -69 -2 0 4 -5 5 -11
2 -16 -11 -69 -12 -69 -2 0 4 -5 5 -11 2 -16 -11 -69 -12 -69 -2 0 4 -5 5 -11
2 -16 -11 -69 -12 -69 -2 0 4 -5 5 -11 2 -16 -11 -69 -12 -69 -2 0 4 -5 5 -11
2 -15 -10 -69 -13 -69 -4 0 4 -12 4 -27 0 -16 -4 -43 -4 -60 0 -18 4 -33 4
-33 0 0 -8 -84 -6 -106 3 -8 3 -14 2 -14 -2 0 -8 -86 -6 -107 3 -7 2 -13 1
-13 -3 0 -9 -67 -9 -76 0 -3 4 -17 3 -30 -2 -16 -6 -24 -6 -24 1 0 6 69 80
153 165 176 180 451 459 972 989 204 207 378 390 388 408 30 55 4 135 -51 155
-44 17 -60 21 -64 17z"/>
</g>
</svg>
